{
    "asset" : {
        "generator" : "Khronos glTF Blender I/O v1.6.16",
        "version" : "2.0"
    },
    "scene" : 0,
    "scenes" : [
        {
            "name" : "Scene",
            "nodes" : [
                0,
                1,
                2,
                3,
                4,
                5
            ]
        }
    ],
    "nodes" : [
        {
            "name" : "Light",
            "rotation" : [
                -0.23616601526737213,
                0.8155616521835327,
                -0.05833869427442551,
                0.5250539183616638
            ],
            "translation" : [
                4.076245307922363,
                5.903861999511719,
                -1.0054539442062378
            ]
        },
        {
            "name" : "Camera",
            "rotation" : [
                -0.12468836456537247,
                0.838238537311554,
                -0.49063438177108765,
                -0.20269906520843506
            ],
            "translation" : [
                -3.5637664794921875,
                4.287985801696777,
                -6.505789756774902
            ]
        },
        {
            "mesh" : 0,
            "name" : "\u7403",
            "rotation" : [
                0,
                -0.9999682307243347,
                0,
                -0.007983763702213764
            ],
            "translation" : [
                -0.00804436206817627,
                0,
                -0.1287544071674347
            ]
        },
        {
            "mesh" : 1,
            "name" : "\u5186",
            "rotation" : [
                -0.005645373370498419,
                -0.7070842981338501,
                0.7070842981338501,
                -0.0056453729048371315
            ],
            "scale" : [
                0.6211167573928833,
                0.6211167573928833,
                0.6211167573928833
            ],
            "translation" : [
                1.7416884899139404,
                0,
                -0.23373901844024658
            ]
        },
        {
            "mesh" : 2,
            "name" : "Bolt",
            "rotation" : [
                0,
                -0.9999682307243347,
                0,
                -0.007983763702213764
            ],
            "scale" : [
                0.128422811627388,
                0.128422811627388,
                0.128422811627388
            ],
            "translation" : [
                -0.00804436206817627,
                0.8504995107650757,
                -0.1287544071674347
            ]
        },
        {
            "mesh" : 3,
            "name" : "Bolt.001",
            "rotation" : [
                0.0511002279818058,
                -0.5224620699882507,
                -0.7868090271949768,
                0.32458269596099854
            ],
            "scale" : [
                0.08776175230741501,
                0.08776174485683441,
                0.08776174485683441
            ],
            "translation" : [
                0.4784858226776123,
                -0.5762675404548645,
                0.2516096532344818
            ]
        }
    ],
    "materials" : [
        {
            "doubleSided" : true,
            "name" : "\u30de\u30c6\u30ea\u30a2\u30eb.005",
            "pbrMetallicRoughness" : {
                "baseColorFactor" : [
                    0.30172938108444214,
                    0.469059020280838,
                    0.49692288041114807,
                    1
                ],
                "metallicFactor" : 0.9230769276618958,
                "roughnessFactor" : 0.2884615361690521
            }
        },
        {
            "doubleSided" : true,
            "name" : "\u30de\u30c6\u30ea\u30a2\u30eb.006",
            "pbrMetallicRoughness" : {
                "baseColorFactor" : [
                    0.800000011920929,
                    0.800000011920929,
                    0.800000011920929,
                    1
                ],
                "metallicFactor" : 0,
                "roughnessFactor" : 0.23076921701431274
            }
        },
        {
            "doubleSided" : true,
            "name" : "\u30de\u30c6\u30ea\u30a2\u30eb.007",
            "pbrMetallicRoughness" : {
                "baseColorFactor" : [
                    0.03310253843665123,
                    0.03310253843665123,
                    0.03310253843665123,
                    1
                ],
                "metallicFactor" : 0,
                "roughnessFactor" : 0.5
            }
        },
        {
            "doubleSided" : true,
            "name" : "\u30de\u30c6\u30ea\u30a2\u30eb.001",
            "pbrMetallicRoughness" : {
                "baseColorFactor" : [
                    0.23955202102661133,
                    0.23955202102661133,
                    0.23955202102661133,
                    1
                ],
                "metallicFactor" : 0.875,
                "roughnessFactor" : 0.307692289352417
            }
        },
        {
            "doubleSided" : true,
            "name" : "\u30de\u30c6\u30ea\u30a2\u30eb.003",
            "pbrMetallicRoughness" : {
                "baseColorFactor" : [
                    0.020694591104984283,
                    0.16987544298171997,
                    0.8000000715255737,
                    1
                ],
                "metallicFactor" : 0.875,
                "roughnessFactor" : 0.29807692766189575
            }
        },
        {
            "doubleSided" : true,
            "name" : "\u30de\u30c6\u30ea\u30a2\u30eb.004",
            "pbrMetallicRoughness" : {
                "baseColorFactor" : [
                    0.8000000715255737,
                    0.03402327001094818,
                    0.02407050132751465,
                    1
                ],
                "metallicFactor" : 0.875,
                "roughnessFactor" : 0.2884615361690521
            }
        },
        {
            "doubleSided" : true,
            "name" : "\u30de\u30c6\u30ea\u30a2\u30eb",
            "pbrMetallicRoughness" : {
                "baseColorFactor" : [
                    0.6038161516189575,
                    0.6038161516189575,
                    0.6038161516189575,
                    1
                ],
                "metallicFactor" : 0.8846153616905212,
                "roughnessFactor" : 0.29807692766189575
            }
        }
    ],
    "meshes" : [
        {
            "name" : "\u7403",
            "primitives" : [
                {
                    "attributes" : {
                        "POSITION" : 0,
                        "NORMAL" : 1,
                        "TEXCOORD_0" : 2
                    },
                    "indices" : 3,
                    "material" : 0
                },
                {
                    "attributes" : {
                        "POSITION" : 4,
                        "NORMAL" : 5,
                        "TEXCOORD_0" : 6
                    },
                    "indices" : 7,
                    "material" : 1
                },
                {
                    "attributes" : {
                        "POSITION" : 8,
                        "NORMAL" : 9,
                        "TEXCOORD_0" : 10
                    },
                    "indices" : 11,
                    "material" : 2
                }
            ]
        },
        {
            "name" : "\u5186",
            "primitives" : [
                {
                    "attributes" : {
                        "POSITION" : 12,
                        "NORMAL" : 13,
                        "TEXCOORD_0" : 14
                    },
                    "indices" : 15,
                    "material" : 3
                },
                {
                    "attributes" : {
                        "POSITION" : 16,
                        "NORMAL" : 17,
                        "TEXCOORD_0" : 18
                    },
                    "indices" : 19,
                    "material" : 4
                },
                {
                    "attributes" : {
                        "POSITION" : 20,
                        "NORMAL" : 21,
                        "TEXCOORD_0" : 22
                    },
                    "indices" : 23,
                    "material" : 5
                }
            ]
        },
        {
            "name" : "Bolt",
            "primitives" : [
                {
                    "attributes" : {
                        "POSITION" : 24,
                        "NORMAL" : 25
                    },
                    "indices" : 26,
                    "material" : 6
                }
            ]
        },
        {
            "name" : "Bolt.001",
            "primitives" : [
                {
                    "attributes" : {
                        "POSITION" : 27,
                        "NORMAL" : 28
                    },
                    "indices" : 29,
                    "material" : 6
                }
            ]
        }
    ],
    "accessors" : [
        {
            "bufferView" : 0,
            "componentType" : 5126,
            "count" : 35648,
            "max" : [
                0.9872309565544128,
                0.9872304201126099,
                0.9975767135620117
            ],
            "min" : [
                -0.9872304201126099,
                -0.9872307181358337,
                -0.9194998741149902
            ],
            "type" : "VEC3"
        },
        {
            "bufferView" : 1,
            "componentType" : 5126,
            "count" : 35648,
            "type" : "VEC3"
        },
        {
            "bufferView" : 2,
            "componentType" : 5126,
            "count" : 35648,
            "type" : "VEC2"
        },
        {
            "bufferView" : 3,
            "componentType" : 5123,
            "count" : 205824,
            "type" : "SCALAR"
        },
        {
            "bufferView" : 4,
            "componentType" : 5126,
            "count" : 6974,
            "max" : [
                0.38023248314857483,
                0.38023218512535095,
                -0.8060595989227295
            ],
            "min" : [
                -0.3802322745323181,
                -0.38023248314857483,
                -0.8771577477455139
            ],
            "type" : "VEC3"
        },
        {
            "bufferView" : 5,
            "componentType" : 5126,
            "count" : 6974,
            "type" : "VEC3"
        },
        {
            "bufferView" : 6,
            "componentType" : 5126,
            "count" : 6974,
            "type" : "VEC2"
        },
        {
            "bufferView" : 7,
            "componentType" : 5123,
            "count" : 36864,
            "type" : "SCALAR"
        },
        {
            "bufferView" : 8,
            "componentType" : 5126,
            "count" : 2786,
            "max" : [
                0.05066832900047302,
                0.05066830664873123,
                -0.8771575689315796
            ],
            "min" : [
                -0.050668295472860336,
                -0.050668321549892426,
                -0.8799967169761658
            ],
            "type" : "VEC3"
        },
        {
            "bufferView" : 9,
            "componentType" : 5126,
            "count" : 2786,
            "type" : "VEC3"
        },
        {
            "bufferView" : 10,
            "componentType" : 5126,
            "count" : 2786,
            "type" : "VEC2"
        },
        {
            "bufferView" : 11,
            "componentType" : 5123,
            "count" : 15360,
            "type" : "SCALAR"
        },
        {
            "bufferView" : 12,
            "componentType" : 5126,
            "count" : 1120,
            "max" : [
                6.53163480758667,
                0.0770459771156311,
                1.000001311302185
            ],
            "min" : [
                -0.894282341003418,
                -0.4008968770503998,
                -1.0000001192092896
            ],
            "type" : "VEC3"
        },
        {
            "bufferView" : 13,
            "componentType" : 5126,
            "count" : 1120,
            "type" : "VEC3"
        },
        {
            "bufferView" : 14,
            "componentType" : 5126,
            "count" : 1120,
            "type" : "VEC2"
        },
        {
            "bufferView" : 15,
            "componentType" : 5123,
            "count" : 4896,
            "type" : "SCALAR"
        },
        {
            "bufferView" : 16,
            "componentType" : 5126,
            "count" : 128,
            "max" : [
                6.920443534851074,
                -8.722028900715526e-20,
                1.000001311302185
            ],
            "min" : [
                -1.2868555784225464,
                -0.43731582164764404,
                -1
            ],
            "type" : "VEC3"
        },
        {
            "bufferView" : 17,
            "componentType" : 5126,
            "count" : 128,
            "type" : "VEC3"
        },
        {
            "bufferView" : 18,
            "componentType" : 5126,
            "count" : 128,
            "type" : "VEC2"
        },
        {
            "bufferView" : 19,
            "componentType" : 5123,
            "count" : 396,
            "type" : "SCALAR"
        },
        {
            "bufferView" : 20,
            "componentType" : 5126,
            "count" : 128,
            "max" : [
                6.920444488525391,
                -8.722021145897283e-20,
                1
            ],
            "min" : [
                -1.2868554592132568,
                -0.43731600046157837,
                -0.9999994039535522
            ],
            "type" : "VEC3"
        },
        {
            "bufferView" : 21,
            "componentType" : 5126,
            "count" : 128,
            "type" : "VEC3"
        },
        {
            "bufferView" : 22,
            "componentType" : 5126,
            "count" : 128,
            "type" : "VEC2"
        },
        {
            "bufferView" : 23,
            "componentType" : 5123,
            "count" : 396,
            "type" : "SCALAR"
        },
        {
            "bufferView" : 24,
            "componentType" : 5126,
            "count" : 2457,
            "max" : [
                2.876042604446411,
                6.358677387237549,
                3.000164270401001
            ],
            "min" : [
                -2.7239573001861572,
                0,
                -2.5691585540771484
            ],
            "type" : "VEC3"
        },
        {
            "bufferView" : 25,
            "componentType" : 5126,
            "count" : 2457,
            "type" : "VEC3"
        },
        {
            "bufferView" : 26,
            "componentType" : 5123,
            "count" : 8970,
            "type" : "SCALAR"
        },
        {
            "bufferView" : 27,
            "componentType" : 5126,
            "count" : 4914,
            "max" : [
                14.743887901306152,
                6.358677387237549,
                9.507465362548828
            ],
            "min" : [
                -2.7239573001861572,
                -5.916047096252441,
                -2.5691585540771484
            ],
            "type" : "VEC3"
        },
        {
            "bufferView" : 28,
            "componentType" : 5126,
            "count" : 4914,
            "type" : "VEC3"
        },
        {
            "bufferView" : 29,
            "componentType" : 5123,
            "count" : 17940,
            "type" : "SCALAR"
        }
    ],
    "bufferViews" : [
        {
            "buffer" : 0,
            "byteLength" : 427776,
            "byteOffset" : 0
        },
        {
            "buffer" : 0,
            "byteLength" : 427776,
            "byteOffset" : 427776
        },
        {
            "buffer" : 0,
            "byteLength" : 285184,
            "byteOffset" : 855552
        },
        {
            "buffer" : 0,
            "byteLength" : 411648,
            "byteOffset" : 1140736
        },
        {
            "buffer" : 0,
            "byteLength" : 83688,
            "byteOffset" : 1552384
        },
        {
            "buffer" : 0,
            "byteLength" : 83688,
            "byteOffset" : 1636072
        },
        {
            "buffer" : 0,
            "byteLength" : 55792,
            "byteOffset" : 1719760
        },
        {
            "buffer" : 0,
            "byteLength" : 73728,
            "byteOffset" : 1775552
        },
        {
            "buffer" : 0,
            "byteLength" : 33432,
            "byteOffset" : 1849280
        },
        {
            "buffer" : 0,
            "byteLength" : 33432,
            "byteOffset" : 1882712
        },
        {
            "buffer" : 0,
            "byteLength" : 22288,
            "byteOffset" : 1916144
        },
        {
            "buffer" : 0,
            "byteLength" : 30720,
            "byteOffset" : 1938432
        },
        {
            "buffer" : 0,
            "byteLength" : 13440,
            "byteOffset" : 1969152
        },
        {
            "buffer" : 0,
            "byteLength" : 13440,
            "byteOffset" : 1982592
        },
        {
            "buffer" : 0,
            "byteLength" : 8960,
            "byteOffset" : 1996032
        },
        {
            "buffer" : 0,
            "byteLength" : 9792,
            "byteOffset" : 2004992
        },
        {
            "buffer" : 0,
            "byteLength" : 1536,
            "byteOffset" : 2014784
        },
        {
            "buffer" : 0,
            "byteLength" : 1536,
            "byteOffset" : 2016320
        },
        {
            "buffer" : 0,
            "byteLength" : 1024,
            "byteOffset" : 2017856
        },
        {
            "buffer" : 0,
            "byteLength" : 792,
            "byteOffset" : 2018880
        },
        {
            "buffer" : 0,
            "byteLength" : 1536,
            "byteOffset" : 2019672
        },
        {
            "buffer" : 0,
            "byteLength" : 1536,
            "byteOffset" : 2021208
        },
        {
            "buffer" : 0,
            "byteLength" : 1024,
            "byteOffset" : 2022744
        },
        {
            "buffer" : 0,
            "byteLength" : 792,
            "byteOffset" : 2023768
        },
        {
            "buffer" : 0,
            "byteLength" : 29484,
            "byteOffset" : 2024560
        },
        {
            "buffer" : 0,
            "byteLength" : 29484,
            "byteOffset" : 2054044
        },
        {
            "buffer" : 0,
            "byteLength" : 17940,
            "byteOffset" : 2083528
        },
        {
            "buffer" : 0,
            "byteLength" : 58968,
            "byteOffset" : 2101468
        },
        {
            "buffer" : 0,
            "byteLength" : 58968,
            "byteOffset" : 2160436
        },
        {
            "buffer" : 0,
            "byteLength" : 35880,
            "byteOffset" : 2219404
        }
    ],
    "buffers" : [
        {
            "byteLength" : 2255284,
            "uri" : "data:application/octet-stream;base64,"
        }
    ]
}
